<svg id="Layer_1" data-name="Layer 1" xmlns="http://www.w3.org/2000/svg" viewBox="0 0 58.24 106.32"><defs><style>.cls-1{fill:#013836;}</style></defs><title>Logos</title><path class="cls-1" d="M105.17,105.85c-1.57-.61-2.26-1.14-2.26-2.2,0-.78.59-1.71,2.15-1.71a4.64,4.64,0,0,1,2.17.54l.4-1.2a5.31,5.31,0,0,0-2.52-.55c-2.22,0-3.68,1.32-3.68,3.09,0,1.61,1.14,2.57,3,3.23,1.54.59,2.15,1.2,2.15,2.27s-.88,1.94-2.38,1.94a5.17,5.17,0,0,1-2.64-.74l-.37,1.23a5.93,5.93,0,0,0,2.91.73c2.69,0,4-1.52,4-3.28S107.1,106.59,105.17,105.85Z" transform="translate(-101.2 -79.66)"/><path class="cls-1" d="M108.79,100.91v1.25h3.46V112.3h1.49V102.16h3.48v-1.25Z" transform="translate(-101.2 -79.66)"/><path class="cls-1" d="M120,111.07V107h4.43v-1.21H120v-3.6h4.68v-1.23H118.5v11.39h6.4v-1.23Z" transform="translate(-101.2 -79.66)"/><path class="cls-1" d="M132.84,101.78a4.65,4.65,0,0,0-3.19-1,16.85,16.85,0,0,0-2.82.22v11.26h1.47v-4.56a5.36,5.36,0,0,0,1.18.1A4.69,4.69,0,0,0,133,106.6a3.32,3.32,0,0,0,.88-2.43A3.12,3.12,0,0,0,132.84,101.78Zm-3.33,4.88a4.69,4.69,0,0,1-1.22-.12v-4.43a6.75,6.75,0,0,1,1.39-.12c1.62,0,2.69.73,2.69,2.23S131.28,106.66,129.51,106.66Z" transform="translate(-101.2 -79.66)"/><path class="cls-1" d="M109.57,186V135h2.27v17.71H120V115.81h-8.11v14.72h-2.27V115.81h-8.11V186Z" transform="translate(-101.2 -79.66)"/><path class="cls-1" d="M129.72,148V135h6.9v-4.48h-6.9v-10h7.64v-4.74H121.62v36.91h15.85V148Z" transform="translate(-101.2 -79.66)"/><path class="cls-1" d="M152.66,79.66v53L148,115.81h-9.21v36.91h6.77l2.28-4.18,3.23,4.18h8.34V79.66Z" transform="translate(-101.2 -79.66)"/><path class="cls-1" d="M113.91,160c0-.61,0-1.11,0-1.6h1l.06,1h0a2.18,2.18,0,0,1,2-1.11c.82,0,2.09.49,2.09,2.52v3.54h-1.08V160.9c0-1-.36-1.75-1.37-1.75a1.57,1.57,0,0,0-1.51,1.6v3.56H113.9V160Z" transform="translate(-101.2 -79.66)"/><path class="cls-1" d="M120.7,160c0-.61,0-1.11,0-1.6h.95l.06,1h0a2.18,2.18,0,0,1,2-1.11c.82,0,2.09.49,2.09,2.52v3.54h-1.08V160.9c0-1-.36-1.75-1.37-1.75a1.57,1.57,0,0,0-1.51,1.6v3.56h-1.08V160Z" transform="translate(-101.2 -79.66)"/><path class="cls-1" d="M130.78,164.31l-.09-.75h0a2.2,2.2,0,0,1-1.81.88,1.68,1.68,0,0,1-1.81-1.7c0-1.43,1.27-2.22,3.56-2.2v-.12a1.22,1.22,0,0,0-1.35-1.37,2.92,2.92,0,0,0-1.54.44l-.24-.71a3.67,3.67,0,0,1,2-.53c1.81,0,2.25,1.24,2.25,2.42v2.22a7.71,7.71,0,0,0,.1,1.42Zm-.16-3c-1.18,0-2.51.18-2.51,1.33a1,1,0,0,0,1,1,1.47,1.47,0,0,0,1.43-1,1,1,0,0,0,.06-.34Z" transform="translate(-101.2 -79.66)"/><path class="cls-1" d="M133.4,160c0-.61,0-1.11-.05-1.6h.94l.05,1h0a2,2,0,0,1,1.86-1.09,1.76,1.76,0,0,1,1.68,1.19h0a2.41,2.41,0,0,1,.66-.77,2,2,0,0,1,1.31-.42c.78,0,2,.51,2,2.57v3.49h-1.05V161c0-1.14-.42-1.82-1.29-1.82a1.39,1.39,0,0,0-1.27,1,1.74,1.74,0,0,0-.09.54v3.66h-1v-3.55c0-.94-.42-1.63-1.24-1.63a1.47,1.47,0,0,0-1.33,1.08,1.51,1.51,0,0,0-.09.53v3.57h-1Z" transform="translate(-101.2 -79.66)"/><path class="cls-1" d="M146.89,164.31l-.09-.75h0a2.2,2.2,0,0,1-1.81.88,1.68,1.68,0,0,1-1.81-1.7c0-1.43,1.27-2.22,3.56-2.2v-.12a1.22,1.22,0,0,0-1.35-1.37,2.92,2.92,0,0,0-1.54.44l-.24-.71a3.67,3.67,0,0,1,2-.53c1.81,0,2.25,1.24,2.25,2.42v2.22a8.7,8.7,0,0,0,.1,1.42Zm-.16-3c-1.18,0-2.51.18-2.51,1.33a1,1,0,0,0,1,1,1.47,1.47,0,0,0,1.43-1,1,1,0,0,0,.06-.34Z" transform="translate(-101.2 -79.66)"/><path class="cls-1" d="M149.51,160c0-.61,0-1.11,0-1.6h.95l.06,1h0a2.18,2.18,0,0,1,2-1.11c.82,0,2.09.49,2.09,2.52v3.54h-1.08V160.9c0-1-.36-1.75-1.37-1.75a1.54,1.54,0,0,0-1.45,1.1,1.51,1.51,0,0,0-.07.5v3.56h-1.08V160Z" transform="translate(-101.2 -79.66)"/><path class="cls-1" d="M157.5,156.72a.67.67,0,0,1-1.34,0,.65.65,0,0,1,.67-.67A.64.64,0,0,1,157.5,156.72Zm-1.2,7.59v-5.92h1.08v5.92Z" transform="translate(-101.2 -79.66)"/></svg>