<?xml version="1.0" encoding="utf-8"?>
<!-- Generator: Adobe Illustrator 24.0.1, SVG Export Plug-In . SVG Version: 6.00 Build 0)  -->
<svg version="1.1" id="Layer_1" xmlns="http://www.w3.org/2000/svg" xmlns:xlink="http://www.w3.org/1999/xlink" x="0px" y="0px"
	 viewBox="0 0 288 288" style="enable-background:new 0 0 288 288;" xml:space="preserve">
<style type="text/css">
	.st0{fill:#013836;}
</style>
<g>
	<g>
		<g>
			<path class="st0" d="M105.17,105.85c-1.57-0.61-2.26-1.14-2.26-2.2c0-0.78,0.59-1.71,2.15-1.71c1.03,0,1.79,0.34,2.17,0.54
				l0.4-1.2c-0.51-0.28-1.36-0.55-2.52-0.55c-2.22,0-3.68,1.32-3.68,3.09c0,1.61,1.14,2.57,3.01,3.23c1.54,0.59,2.15,1.2,2.15,2.27
				c0,1.15-0.88,1.94-2.38,1.94c-1.02,0-1.98-0.33-2.64-0.74l-0.37,1.23c0.6,0.4,1.81,0.73,2.91,0.73c2.69,0,3.99-1.52,3.99-3.28
				C108.09,107.52,107.1,106.59,105.17,105.85z"/>
			<path class="st0" d="M108.79,100.91v1.25h3.46v10.14h1.49v-10.14h3.48v-1.25H108.79z"/>
			<path class="st0" d="M119.97,111.07v-4.11h4.43v-1.21h-4.43v-3.6h4.68v-1.23h-6.15v11.39h6.4v-1.23L119.97,111.07L119.97,111.07z
				"/>
			<path class="st0" d="M132.84,101.78c-0.67-0.61-1.74-0.95-3.19-0.95c-1.18,0-2.11,0.1-2.82,0.22v11.26h1.47v-4.56
				c0.34,0.08,0.75,0.1,1.18,0.1c1.44,0,2.71-0.42,3.48-1.25c0.58-0.59,0.88-1.4,0.88-2.43
				C133.83,103.15,133.46,102.32,132.84,101.78z M129.51,106.66c-0.49,0-0.9-0.03-1.22-0.12v-4.43c0.26-0.06,0.75-0.12,1.39-0.12
				c1.62,0,2.69,0.73,2.69,2.23C132.36,105.8,131.28,106.66,129.51,106.66z"/>
			<path class="st0" d="M109.57,185.97v-50.96h2.27v17.71h8.11v-36.91h-8.11v14.72h-2.27v-14.72h-8.11v70.17L109.57,185.97
				L109.57,185.97z"/>
			<path class="st0" d="M129.72,147.98v-12.97h6.9v-4.48h-6.9v-9.98h7.64v-4.74h-15.74v36.91h15.85v-4.74L129.72,147.98
				L129.72,147.98z"/>
			<path class="st0" d="M152.66,79.66v52.99l-4.63-16.84h-9.21v36.91h6.77l2.28-4.18l3.23,4.18h8.34V79.66H152.66z"/>
		</g>
	</g>
	<g>
		<path class="st0" d="M113.91,159.99c0-0.61-0.01-1.11-0.05-1.6h0.95l0.06,0.98h0.02c0.29-0.56,0.98-1.11,1.96-1.11
			c0.82,0,2.09,0.49,2.09,2.52v3.54h-1.08v-3.42c0-0.96-0.36-1.75-1.37-1.75c-0.71,0-1.26,0.5-1.44,1.1
			c-0.05,0.13-0.07,0.32-0.07,0.5v3.56h-1.08v-4.32H113.91z"/>
		<path class="st0" d="M120.7,159.99c0-0.61-0.01-1.11-0.05-1.6h0.95l0.06,0.98h0.02c0.29-0.56,0.98-1.11,1.96-1.11
			c0.82,0,2.09,0.49,2.09,2.52v3.54h-1.08v-3.42c0-0.96-0.36-1.75-1.37-1.75c-0.71,0-1.26,0.5-1.44,1.1
			c-0.05,0.13-0.07,0.32-0.07,0.5v3.56h-1.08L120.7,159.99L120.7,159.99z"/>
		<path class="st0" d="M130.78,164.31l-0.09-0.75h-0.04c-0.33,0.47-0.97,0.88-1.81,0.88c-1.2,0-1.81-0.84-1.81-1.7
			c0-1.43,1.27-2.22,3.56-2.2v-0.12c0-0.49-0.13-1.37-1.35-1.37c-0.55,0-1.13,0.17-1.54,0.44l-0.24-0.71
			c0.49-0.32,1.2-0.53,1.95-0.53c1.81,0,2.25,1.24,2.25,2.42v2.22c0,0.51,0.02,1.02,0.1,1.42L130.78,164.31L130.78,164.31z
			 M130.62,161.29c-1.18-0.03-2.51,0.18-2.51,1.33c0,0.7,0.47,1.03,1.02,1.03c0.77,0,1.26-0.49,1.43-0.99
			c0.04-0.11,0.06-0.23,0.06-0.34C130.62,162.32,130.62,161.29,130.62,161.29z"/>
		<path class="st0" d="M133.4,159.99c0-0.61-0.01-1.11-0.05-1.6h0.94l0.05,0.95h0.04c0.33-0.56,0.88-1.09,1.86-1.09
			c0.81,0,1.42,0.49,1.68,1.19h0.02c0.18-0.33,0.42-0.59,0.66-0.77c0.35-0.27,0.75-0.42,1.31-0.42c0.78,0,1.95,0.51,1.95,2.57v3.49
			h-1.05v-3.35c0-1.14-0.42-1.82-1.29-1.82c-0.61,0-1.09,0.45-1.27,0.98c-0.05,0.15-0.09,0.34-0.09,0.54v3.66h-1.05v-3.55
			c0-0.94-0.42-1.63-1.24-1.63c-0.67,0-1.16,0.54-1.33,1.08c-0.06,0.16-0.09,0.34-0.09,0.53v3.57h-1.05
			C133.4,164.32,133.4,159.99,133.4,159.99z"/>
		<path class="st0" d="M146.89,164.31l-0.09-0.75h-0.04c-0.33,0.47-0.97,0.88-1.81,0.88c-1.2,0-1.81-0.84-1.81-1.7
			c0-1.43,1.27-2.22,3.56-2.2v-0.12c0-0.49-0.13-1.37-1.35-1.37c-0.55,0-1.13,0.17-1.54,0.44l-0.24-0.71
			c0.49-0.32,1.2-0.53,1.95-0.53c1.81,0,2.25,1.24,2.25,2.42v2.22c0,0.51,0.03,1.02,0.1,1.42L146.89,164.31L146.89,164.31z
			 M146.73,161.29c-1.18-0.03-2.51,0.18-2.51,1.33c0,0.7,0.46,1.03,1.02,1.03c0.77,0,1.26-0.49,1.43-0.99
			c0.04-0.11,0.06-0.23,0.06-0.34C146.73,162.32,146.73,161.29,146.73,161.29z"/>
		<path class="st0" d="M149.51,159.99c0-0.61-0.01-1.11-0.05-1.6h0.95l0.06,0.98h0.02c0.29-0.56,0.98-1.11,1.96-1.11
			c0.82,0,2.09,0.49,2.09,2.52v3.54h-1.08v-3.42c0-0.96-0.36-1.75-1.37-1.75c-0.71,0-1.26,0.5-1.45,1.1
			c-0.05,0.13-0.07,0.32-0.07,0.5v3.56h-1.08v-4.32H149.51z"/>
		<path class="st0" d="M157.5,156.72c0.01,0.37-0.26,0.66-0.69,0.66c-0.38,0-0.65-0.29-0.65-0.66c0-0.38,0.28-0.67,0.67-0.67
			C157.24,156.05,157.5,156.34,157.5,156.72z M156.3,164.31v-5.92h1.08v5.92H156.3z"/>
	</g>
</g>
</svg>
